<?xml version="1.0" encoding="UTF-8" standalone="no"?>
<!DOCTYPE svg PUBLIC "-//W3C//DTD SVG 1.1//EN"
 "http://www.w3.org/Graphics/SVG/1.1/DTD/svg11.dtd">
<!-- Generated by graphviz version 2.44.0 ()
 -->
<!-- Title: ee/rpc/cdvd/include/libcdvd.h Pages: 1 -->
<svg width="1180pt" height="173pt"
 viewBox="0.00 0.00 1179.50 173.00" xmlns="http://www.w3.org/2000/svg" xmlns:xlink="http://www.w3.org/1999/xlink">
<g id="graph0" class="graph" transform="scale(1 1) rotate(0) translate(4 169)">
<title>ee/rpc/cdvd/include/libcdvd.h</title>
<polygon fill="white" stroke="transparent" points="-4,4 -4,-169 1175.5,-169 1175.5,4 -4,4"/>
<!-- Node1 -->
<g id="node1" class="node">
<title>Node1</title>
<g id="a_node1"><a xlink:title=" ">
<polygon fill="#bfbfbf" stroke="black" points="875.5,-134.5 875.5,-164.5 976.5,-164.5 976.5,-134.5 875.5,-134.5"/>
<text text-anchor="start" x="883.5" y="-152.5" font-family="Helvetica,sans-Serif" font-size="10.00">ee/rpc/cdvd/include</text>
<text text-anchor="middle" x="926" y="-141.5" font-family="Helvetica,sans-Serif" font-size="10.00">/libcdvd.h</text>
</a>
</g>
</g>
<!-- Node2 -->
<g id="node2" class="node">
<title>Node2</title>
<g id="a_node2"><a xlink:href="osd__config_8h.html" target="_top" xlink:title=" ">
<polygon fill="white" stroke="black" points="560.5,-67.5 560.5,-97.5 669.5,-97.5 669.5,-67.5 560.5,-67.5"/>
<text text-anchor="start" x="568.5" y="-85.5" font-family="Helvetica,sans-Serif" font-size="10.00">ee/kernel/include/osd</text>
<text text-anchor="middle" x="615" y="-74.5" font-family="Helvetica,sans-Serif" font-size="10.00">_config.h</text>
</a>
</g>
</g>
<!-- Node1&#45;&gt;Node2 -->
<g id="edge1" class="edge">
<title>Node1&#45;&gt;Node2</title>
<path fill="none" stroke="midnightblue" d="M865.41,-135.84C808.58,-123.96 724.35,-106.35 669.56,-94.9"/>
<polygon fill="midnightblue" stroke="midnightblue" points="864.84,-139.29 875.34,-137.91 866.27,-132.44 864.84,-139.29"/>
</g>
<!-- Node11 -->
<g id="node11" class="node">
<title>Node11</title>
<g id="a_node11"><a xlink:href="scmd_8c.html" target="_top" xlink:title=" ">
<polygon fill="white" stroke="black" points="1005.5,-6 1005.5,-25 1124.5,-25 1124.5,-6 1005.5,-6"/>
<text text-anchor="middle" x="1065" y="-13" font-family="Helvetica,sans-Serif" font-size="10.00">ee/rpc/cdvd/src/scmd.c</text>
</a>
</g>
</g>
<!-- Node1&#45;&gt;Node11 -->
<g id="edge13" class="edge">
<title>Node1&#45;&gt;Node11</title>
<path fill="none" stroke="midnightblue" d="M908.92,-125.78C898.05,-108.32 888.2,-84.34 901,-67 908.81,-56.43 983.81,-36.43 1029.63,-25.03"/>
<polygon fill="midnightblue" stroke="midnightblue" points="906.12,-127.88 914.59,-134.25 911.94,-123.99 906.12,-127.88"/>
</g>
<!-- Node12 -->
<g id="node12" class="node">
<title>Node12</title>
<g id="a_node12"><a xlink:href="libcdvd_8c.html" target="_top" xlink:title=" ">
<polygon fill="white" stroke="black" points="909.5,-73 909.5,-92 1034.5,-92 1034.5,-73 909.5,-73"/>
<text text-anchor="middle" x="972" y="-80" font-family="Helvetica,sans-Serif" font-size="10.00">ee/rpc/cdvd/src/libcdvd.c</text>
</a>
</g>
</g>
<!-- Node1&#45;&gt;Node12 -->
<g id="edge11" class="edge">
<title>Node1&#45;&gt;Node12</title>
<path fill="none" stroke="midnightblue" d="M941.94,-125.97C950.18,-114.33 959.76,-100.8 965.85,-92.19"/>
<polygon fill="midnightblue" stroke="midnightblue" points="938.9,-124.21 935.98,-134.4 944.61,-128.26 938.9,-124.21"/>
</g>
<!-- Node13 -->
<g id="node13" class="node">
<title>Node13</title>
<g id="a_node13"><a xlink:href="ncmd_8c.html" target="_top" xlink:title=" ">
<polygon fill="white" stroke="black" points="1052.5,-73 1052.5,-92 1171.5,-92 1171.5,-73 1052.5,-73"/>
<text text-anchor="middle" x="1112" y="-80" font-family="Helvetica,sans-Serif" font-size="10.00">ee/rpc/cdvd/src/ncmd.c</text>
</a>
</g>
</g>
<!-- Node1&#45;&gt;Node13 -->
<g id="edge12" class="edge">
<title>Node1&#45;&gt;Node13</title>
<path fill="none" stroke="midnightblue" d="M976.23,-130.95C1012.36,-118.32 1059.49,-101.85 1087.66,-92.01"/>
<polygon fill="midnightblue" stroke="midnightblue" points="974.64,-127.79 966.36,-134.4 976.95,-134.4 974.64,-127.79"/>
</g>
<!-- Node3 -->
<g id="node3" class="node">
<title>Node3</title>
<g id="a_node3"><a xlink:href="graph__mode_8c_source.html" target="_top" xlink:title=" ">
<polygon fill="white" stroke="black" points="0,-0.5 0,-30.5 98,-30.5 98,-0.5 0,-0.5"/>
<text text-anchor="start" x="8" y="-18.5" font-family="Helvetica,sans-Serif" font-size="10.00">ee/graph/src/graph</text>
<text text-anchor="middle" x="49" y="-7.5" font-family="Helvetica,sans-Serif" font-size="10.00">_mode.c</text>
</a>
</g>
</g>
<!-- Node2&#45;&gt;Node3 -->
<g id="edge2" class="edge">
<title>Node2&#45;&gt;Node3</title>
<path fill="none" stroke="midnightblue" d="M549.9,-78.08C452.86,-72.28 264.76,-58.41 107,-31 104.14,-30.5 101.21,-29.94 98.26,-29.33"/>
<polygon fill="midnightblue" stroke="midnightblue" points="549.95,-81.58 560.14,-78.68 550.36,-74.6 549.95,-81.58"/>
</g>
<!-- Node4 -->
<g id="node4" class="node">
<title>Node4</title>
<g id="a_node4"><a xlink:href="libosd_8c.html" target="_top" xlink:title=" ">
<polygon fill="white" stroke="black" points="116.5,-6 116.5,-25 225.5,-25 225.5,-6 116.5,-6"/>
<text text-anchor="middle" x="171" y="-13" font-family="Helvetica,sans-Serif" font-size="10.00">ee/kernel/src/libosd.c</text>
</a>
</g>
</g>
<!-- Node2&#45;&gt;Node4 -->
<g id="edge3" class="edge">
<title>Node2&#45;&gt;Node4</title>
<path fill="none" stroke="midnightblue" d="M550.12,-74.79C474.06,-66.49 344.37,-50.97 234,-31 224.72,-29.32 214.75,-27.18 205.54,-25.07"/>
<polygon fill="midnightblue" stroke="midnightblue" points="550.17,-78.32 560.49,-75.91 550.92,-71.36 550.17,-78.32"/>
</g>
<!-- Node5 -->
<g id="node5" class="node">
<title>Node5</title>
<g id="a_node5"><a xlink:href="libosd__common_8c.html" target="_top" xlink:title=" ">
<polygon fill="white" stroke="black" points="243.5,-0.5 243.5,-30.5 344.5,-30.5 344.5,-0.5 243.5,-0.5"/>
<text text-anchor="start" x="251.5" y="-18.5" font-family="Helvetica,sans-Serif" font-size="10.00">ee/kernel/src/libosd</text>
<text text-anchor="middle" x="294" y="-7.5" font-family="Helvetica,sans-Serif" font-size="10.00">_common.c</text>
</a>
</g>
</g>
<!-- Node2&#45;&gt;Node5 -->
<g id="edge4" class="edge">
<title>Node2&#45;&gt;Node5</title>
<path fill="none" stroke="midnightblue" d="M550.42,-69.99C497.28,-60.3 420.06,-45.69 353,-31 350.32,-30.41 347.58,-29.8 344.81,-29.16"/>
<polygon fill="midnightblue" stroke="midnightblue" points="549.93,-73.46 560.39,-71.81 551.18,-66.57 549.93,-73.46"/>
</g>
<!-- Node6 -->
<g id="node6" class="node">
<title>Node6</title>
<g id="a_node6"><a xlink:href="libosd__full_8c.html" target="_top" xlink:title=" ">
<polygon fill="white" stroke="black" points="362.5,-0.5 362.5,-30.5 463.5,-30.5 463.5,-0.5 362.5,-0.5"/>
<text text-anchor="start" x="370.5" y="-18.5" font-family="Helvetica,sans-Serif" font-size="10.00">ee/kernel/src/libosd</text>
<text text-anchor="middle" x="413" y="-7.5" font-family="Helvetica,sans-Serif" font-size="10.00">_full.c</text>
</a>
</g>
</g>
<!-- Node2&#45;&gt;Node6 -->
<g id="edge5" class="edge">
<title>Node2&#45;&gt;Node6</title>
<path fill="none" stroke="midnightblue" d="M561.32,-64.23C528.65,-53.71 487.43,-40.45 456.75,-30.58"/>
<polygon fill="midnightblue" stroke="midnightblue" points="560.58,-67.66 571.17,-67.4 562.72,-61 560.58,-67.66"/>
</g>
<!-- Node7 -->
<g id="node7" class="node">
<title>Node7</title>
<g id="a_node7"><a xlink:href="osd__config_8c.html" target="_top" xlink:title=" ">
<polygon fill="white" stroke="black" points="482,-6 482,-25 612,-25 612,-6 482,-6"/>
<text text-anchor="middle" x="547" y="-13" font-family="Helvetica,sans-Serif" font-size="10.00">ee/kernel/src/osd_config.c</text>
</a>
</g>
</g>
<!-- Node2&#45;&gt;Node7 -->
<g id="edge6" class="edge">
<title>Node2&#45;&gt;Node7</title>
<path fill="none" stroke="midnightblue" d="M592.86,-60.34C580.37,-48.4 565.45,-34.14 556.1,-25.19"/>
<polygon fill="midnightblue" stroke="midnightblue" points="590.6,-63.02 600.25,-67.4 595.43,-57.96 590.6,-63.02"/>
</g>
<!-- Node8 -->
<g id="node8" class="node">
<title>Node8</title>
<g id="a_node8"><a xlink:href="osd_8c_source.html" target="_top" xlink:title=" ">
<polygon fill="white" stroke="black" points="630.5,-0.5 630.5,-30.5 735.5,-30.5 735.5,-0.5 630.5,-0.5"/>
<text text-anchor="start" x="638.5" y="-18.5" font-family="Helvetica,sans-Serif" font-size="10.00">ee/kernel/src/osdsrc</text>
<text text-anchor="middle" x="683" y="-7.5" font-family="Helvetica,sans-Serif" font-size="10.00">/src/osd.c</text>
</a>
</g>
</g>
<!-- Node2&#45;&gt;Node8 -->
<g id="edge7" class="edge">
<title>Node2&#45;&gt;Node8</title>
<path fill="none" stroke="midnightblue" d="M637.17,-60.31C647.37,-50.56 659.19,-39.26 668.27,-30.58"/>
<polygon fill="midnightblue" stroke="midnightblue" points="634.57,-57.96 629.75,-67.4 639.4,-63.02 634.57,-57.96"/>
</g>
<!-- Node9 -->
<g id="node9" class="node">
<title>Node9</title>
<g id="a_node9"><a xlink:href="osdsrc_8c_source.html" target="_top" xlink:title=" ">
<polygon fill="white" stroke="black" points="753.5,-0.5 753.5,-30.5 858.5,-30.5 858.5,-0.5 753.5,-0.5"/>
<text text-anchor="start" x="761.5" y="-18.5" font-family="Helvetica,sans-Serif" font-size="10.00">ee/kernel/src/osdsrc</text>
<text text-anchor="middle" x="806" y="-7.5" font-family="Helvetica,sans-Serif" font-size="10.00">/src/osdsrc.c</text>
</a>
</g>
</g>
<!-- Node2&#45;&gt;Node9 -->
<g id="edge8" class="edge">
<title>Node2&#45;&gt;Node9</title>
<path fill="none" stroke="midnightblue" d="M666.15,-64.09C696.99,-53.6 735.75,-40.41 764.64,-30.58"/>
<polygon fill="midnightblue" stroke="midnightblue" points="664.78,-60.86 656.44,-67.4 667.04,-67.49 664.78,-60.86"/>
</g>
<!-- Node10 -->
<g id="node10" class="node">
<title>Node10</title>
<g id="a_node10"><a xlink:href="timezone_8c.html" target="_top" xlink:title=" ">
<polygon fill="white" stroke="black" points="876.5,-6 876.5,-25 987.5,-25 987.5,-6 876.5,-6"/>
<text text-anchor="middle" x="932" y="-13" font-family="Helvetica,sans-Serif" font-size="10.00">ee/libc/src/timezone.c</text>
</a>
</g>
</g>
<!-- Node2&#45;&gt;Node10 -->
<g id="edge9" class="edge">
<title>Node2&#45;&gt;Node10</title>
<path fill="none" stroke="midnightblue" d="M679.8,-69.04C730.97,-59.09 804.14,-44.61 868,-31 876.8,-29.12 886.27,-27.03 895.15,-25.02"/>
<polygon fill="midnightblue" stroke="midnightblue" points="679.01,-65.63 669.87,-70.97 680.35,-72.5 679.01,-65.63"/>
</g>
<!-- Node2&#45;&gt;Node11 -->
<g id="edge10" class="edge">
<title>Node2&#45;&gt;Node11</title>
<path fill="none" stroke="midnightblue" d="M680,-74.49C756.2,-65.9 886.19,-50.11 997,-31 1006.99,-29.28 1017.75,-27.12 1027.69,-25.01"/>
<polygon fill="midnightblue" stroke="midnightblue" points="679.15,-71.06 669.61,-75.65 679.93,-78.01 679.15,-71.06"/>
</g>
</g>
</svg>
