<?xml version="1.0" encoding="UTF-8" standalone="no"?>
<!DOCTYPE svg PUBLIC "-//W3C//DTD SVG 1.1//EN"
 "http://www.w3.org/Graphics/SVG/1.1/DTD/svg11.dtd">
<!-- Generated by graphviz version 2.44.0 ()
 -->
<!-- Title: ee/kernel/include/osd_config.h Pages: 1 -->
<svg width="1133pt" height="106pt"
 viewBox="0.00 0.00 1132.50 106.00" xmlns="http://www.w3.org/2000/svg" xmlns:xlink="http://www.w3.org/1999/xlink">
<g id="graph0" class="graph" transform="scale(1 1) rotate(0) translate(4 102)">
<title>ee/kernel/include/osd_config.h</title>
<polygon fill="white" stroke="transparent" points="-4,4 -4,-102 1128.5,-102 1128.5,4 -4,4"/>
<!-- Node1 -->
<g id="node1" class="node">
<title>Node1</title>
<g id="a_node1"><a xlink:title=" ">
<polygon fill="#bfbfbf" stroke="black" points="492.5,-67.5 492.5,-97.5 601.5,-97.5 601.5,-67.5 492.5,-67.5"/>
<text text-anchor="start" x="500.5" y="-85.5" font-family="Helvetica,sans-Serif" font-size="10.00">ee/kernel/include/osd</text>
<text text-anchor="middle" x="547" y="-74.5" font-family="Helvetica,sans-Serif" font-size="10.00">_config.h</text>
</a>
</g>
</g>
<!-- Node2 -->
<g id="node2" class="node">
<title>Node2</title>
<g id="a_node2"><a xlink:href="graph__mode_8c_source.html" target="_top" xlink:title=" ">
<polygon fill="white" stroke="black" points="0,-0.5 0,-30.5 98,-30.5 98,-0.5 0,-0.5"/>
<text text-anchor="start" x="8" y="-18.5" font-family="Helvetica,sans-Serif" font-size="10.00">ee/graph/src/graph</text>
<text text-anchor="middle" x="49" y="-7.5" font-family="Helvetica,sans-Serif" font-size="10.00">_mode.c</text>
</a>
</g>
</g>
<!-- Node1&#45;&gt;Node2 -->
<g id="edge1" class="edge">
<title>Node1&#45;&gt;Node2</title>
<path fill="none" stroke="midnightblue" d="M482.33,-76.74C396.2,-69.79 239.31,-55.03 107,-31 104.14,-30.48 101.21,-29.9 98.27,-29.28"/>
<polygon fill="midnightblue" stroke="midnightblue" points="482.23,-80.24 492.47,-77.55 482.78,-73.26 482.23,-80.24"/>
</g>
<!-- Node3 -->
<g id="node3" class="node">
<title>Node3</title>
<g id="a_node3"><a xlink:href="libosd_8c.html" target="_top" xlink:title=" ">
<polygon fill="white" stroke="black" points="116.5,-6 116.5,-25 225.5,-25 225.5,-6 116.5,-6"/>
<text text-anchor="middle" x="171" y="-13" font-family="Helvetica,sans-Serif" font-size="10.00">ee/kernel/src/libosd.c</text>
</a>
</g>
</g>
<!-- Node1&#45;&gt;Node3 -->
<g id="edge2" class="edge">
<title>Node1&#45;&gt;Node3</title>
<path fill="none" stroke="midnightblue" d="M481.98,-72.29C418.52,-63.01 319.33,-47.68 234,-31 224.97,-29.23 215.26,-27.11 206.23,-25.04"/>
<polygon fill="midnightblue" stroke="midnightblue" points="481.84,-75.81 492.24,-73.79 482.85,-68.88 481.84,-75.81"/>
</g>
<!-- Node4 -->
<g id="node4" class="node">
<title>Node4</title>
<g id="a_node4"><a xlink:href="libosd__common_8c.html" target="_top" xlink:title=" ">
<polygon fill="white" stroke="black" points="243.5,-0.5 243.5,-30.5 344.5,-30.5 344.5,-0.5 243.5,-0.5"/>
<text text-anchor="start" x="251.5" y="-18.5" font-family="Helvetica,sans-Serif" font-size="10.00">ee/kernel/src/libosd</text>
<text text-anchor="middle" x="294" y="-7.5" font-family="Helvetica,sans-Serif" font-size="10.00">_common.c</text>
</a>
</g>
</g>
<!-- Node1&#45;&gt;Node4 -->
<g id="edge3" class="edge">
<title>Node1&#45;&gt;Node4</title>
<path fill="none" stroke="midnightblue" d="M482.65,-64.97C439.8,-53.96 384.3,-39.7 344.62,-29.5"/>
<polygon fill="midnightblue" stroke="midnightblue" points="481.86,-68.38 492.41,-67.48 483.6,-61.6 481.86,-68.38"/>
</g>
<!-- Node5 -->
<g id="node5" class="node">
<title>Node5</title>
<g id="a_node5"><a xlink:href="libosd__full_8c.html" target="_top" xlink:title=" ">
<polygon fill="white" stroke="black" points="362.5,-0.5 362.5,-30.5 463.5,-30.5 463.5,-0.5 362.5,-0.5"/>
<text text-anchor="start" x="370.5" y="-18.5" font-family="Helvetica,sans-Serif" font-size="10.00">ee/kernel/src/libosd</text>
<text text-anchor="middle" x="413" y="-7.5" font-family="Helvetica,sans-Serif" font-size="10.00">_full.c</text>
</a>
</g>
</g>
<!-- Node1&#45;&gt;Node5 -->
<g id="edge4" class="edge">
<title>Node1&#45;&gt;Node5</title>
<path fill="none" stroke="midnightblue" d="M508.85,-62.99C487.61,-52.69 461.59,-40.07 442.02,-30.58"/>
<polygon fill="midnightblue" stroke="midnightblue" points="507.4,-66.18 517.92,-67.4 510.45,-59.88 507.4,-66.18"/>
</g>
<!-- Node6 -->
<g id="node6" class="node">
<title>Node6</title>
<g id="a_node6"><a xlink:href="osd__config_8c.html" target="_top" xlink:title=" ">
<polygon fill="white" stroke="black" points="482,-6 482,-25 612,-25 612,-6 482,-6"/>
<text text-anchor="middle" x="547" y="-13" font-family="Helvetica,sans-Serif" font-size="10.00">ee/kernel/src/osd_config.c</text>
</a>
</g>
</g>
<!-- Node1&#45;&gt;Node6 -->
<g id="edge5" class="edge">
<title>Node1&#45;&gt;Node6</title>
<path fill="none" stroke="midnightblue" d="M547,-57.25C547,-46.02 547,-33.38 547,-25.19"/>
<polygon fill="midnightblue" stroke="midnightblue" points="543.5,-57.4 547,-67.4 550.5,-57.4 543.5,-57.4"/>
</g>
<!-- Node7 -->
<g id="node7" class="node">
<title>Node7</title>
<g id="a_node7"><a xlink:href="osd_8c_source.html" target="_top" xlink:title=" ">
<polygon fill="white" stroke="black" points="630.5,-0.5 630.5,-30.5 735.5,-30.5 735.5,-0.5 630.5,-0.5"/>
<text text-anchor="start" x="638.5" y="-18.5" font-family="Helvetica,sans-Serif" font-size="10.00">ee/kernel/src/osdsrc</text>
<text text-anchor="middle" x="683" y="-7.5" font-family="Helvetica,sans-Serif" font-size="10.00">/src/osd.c</text>
</a>
</g>
</g>
<!-- Node1&#45;&gt;Node7 -->
<g id="edge6" class="edge">
<title>Node1&#45;&gt;Node7</title>
<path fill="none" stroke="midnightblue" d="M585.72,-62.99C607.28,-52.69 633.69,-40.07 653.55,-30.58"/>
<polygon fill="midnightblue" stroke="midnightblue" points="584.02,-59.93 576.51,-67.4 587.04,-66.24 584.02,-59.93"/>
</g>
<!-- Node8 -->
<g id="node8" class="node">
<title>Node8</title>
<g id="a_node8"><a xlink:href="osdsrc_8c_source.html" target="_top" xlink:title=" ">
<polygon fill="white" stroke="black" points="753.5,-0.5 753.5,-30.5 858.5,-30.5 858.5,-0.5 753.5,-0.5"/>
<text text-anchor="start" x="761.5" y="-18.5" font-family="Helvetica,sans-Serif" font-size="10.00">ee/kernel/src/osdsrc</text>
<text text-anchor="middle" x="806" y="-7.5" font-family="Helvetica,sans-Serif" font-size="10.00">/src/osdsrc.c</text>
</a>
</g>
</g>
<!-- Node1&#45;&gt;Node8 -->
<g id="edge7" class="edge">
<title>Node1&#45;&gt;Node8</title>
<path fill="none" stroke="midnightblue" d="M611.57,-65.3C655.26,-54.33 712.26,-40.02 753.23,-29.74"/>
<polygon fill="midnightblue" stroke="midnightblue" points="610.46,-61.97 601.61,-67.79 612.16,-68.76 610.46,-61.97"/>
</g>
<!-- Node9 -->
<g id="node9" class="node">
<title>Node9</title>
<g id="a_node9"><a xlink:href="timezone_8c.html" target="_top" xlink:title=" ">
<polygon fill="white" stroke="black" points="876.5,-6 876.5,-25 987.5,-25 987.5,-6 876.5,-6"/>
<text text-anchor="middle" x="932" y="-13" font-family="Helvetica,sans-Serif" font-size="10.00">ee/libc/src/timezone.c</text>
</a>
</g>
</g>
<!-- Node1&#45;&gt;Node9 -->
<g id="edge8" class="edge">
<title>Node1&#45;&gt;Node9</title>
<path fill="none" stroke="midnightblue" d="M611.82,-72.6C676.81,-63.37 779.65,-47.94 868,-31 877.17,-29.24 887.04,-27.12 896.21,-25.05"/>
<polygon fill="midnightblue" stroke="midnightblue" points="611.13,-69.16 601.72,-74.03 612.11,-76.09 611.13,-69.16"/>
</g>
<!-- Node10 -->
<g id="node10" class="node">
<title>Node10</title>
<g id="a_node10"><a xlink:href="scmd_8c.html" target="_top" xlink:title=" ">
<polygon fill="white" stroke="black" points="1005.5,-6 1005.5,-25 1124.5,-25 1124.5,-6 1005.5,-6"/>
<text text-anchor="middle" x="1065" y="-13" font-family="Helvetica,sans-Serif" font-size="10.00">ee/rpc/cdvd/src/scmd.c</text>
</a>
</g>
</g>
<!-- Node1&#45;&gt;Node10 -->
<g id="edge9" class="edge">
<title>Node1&#45;&gt;Node10</title>
<path fill="none" stroke="midnightblue" d="M611.67,-76.26C699.33,-68.69 860.59,-53.14 997,-31 1007.13,-29.36 1018.03,-27.21 1028.07,-25.07"/>
<polygon fill="midnightblue" stroke="midnightblue" points="611.28,-72.78 601.61,-77.12 611.87,-79.75 611.28,-72.78"/>
</g>
</g>
</svg>
