<?xml version="1.0" encoding="UTF-8" standalone="no"?>
<!DOCTYPE svg PUBLIC "-//W3C//DTD SVG 1.1//EN"
 "http://www.w3.org/Graphics/SVG/1.1/DTD/svg11.dtd">
<!-- Generated by graphviz version 2.44.0 ()
 -->
<!-- Title: iop/kernel/include/stdint.h Pages: 1 -->
<svg width="643pt" height="173pt"
 viewBox="0.00 0.00 643.00 173.00" xmlns="http://www.w3.org/2000/svg" xmlns:xlink="http://www.w3.org/1999/xlink">
<g id="graph0" class="graph" transform="scale(1 1) rotate(0) translate(4 169)">
<title>iop/kernel/include/stdint.h</title>
<polygon fill="white" stroke="transparent" points="-4,4 -4,-169 639,-169 639,4 -4,4"/>
<!-- Node1 -->
<g id="node1" class="node">
<title>Node1</title>
<g id="a_node1"><a xlink:title=" ">
<polygon fill="#bfbfbf" stroke="black" points="294,-134.5 294,-164.5 386,-164.5 386,-134.5 294,-134.5"/>
<text text-anchor="start" x="302" y="-152.5" font-family="Helvetica,sans-Serif" font-size="10.00">iop/kernel/include</text>
<text text-anchor="middle" x="340" y="-141.5" font-family="Helvetica,sans-Serif" font-size="10.00">/stdint.h</text>
</a>
</g>
</g>
<!-- Node2 -->
<g id="node2" class="node">
<title>Node2</title>
<g id="a_node2"><a xlink:href="ps2sdkapi_8c_source.html" target="_top" xlink:title=" ">
<polygon fill="white" stroke="black" points="0,-73 0,-92 116,-92 116,-73 0,-73"/>
<text text-anchor="middle" x="58" y="-80" font-family="Helvetica,sans-Serif" font-size="10.00">ee/libc/src/ps2sdkapi.c</text>
</a>
</g>
</g>
<!-- Node1&#45;&gt;Node2 -->
<g id="edge1" class="edge">
<title>Node1&#45;&gt;Node2</title>
<path fill="none" stroke="midnightblue" d="M283.99,-135.59C228,-122.68 143.5,-103.21 95.26,-92.09"/>
<polygon fill="midnightblue" stroke="midnightblue" points="283.22,-139 293.75,-137.84 284.79,-132.18 283.22,-139"/>
</g>
<!-- Node3 -->
<g id="node3" class="node">
<title>Node3</title>
<g id="a_node3"><a xlink:href="byteorder_8h.html" target="_top" xlink:title=" ">
<polygon fill="white" stroke="black" points="134,-73 134,-92 266,-92 266,-73 134,-73"/>
<text text-anchor="middle" x="200" y="-80" font-family="Helvetica,sans-Serif" font-size="10.00">iop/fs/netfs/src/byteorder.h</text>
</a>
</g>
</g>
<!-- Node1&#45;&gt;Node3 -->
<g id="edge2" class="edge">
<title>Node1&#45;&gt;Node3</title>
<path fill="none" stroke="midnightblue" d="M300.44,-130.13C273.49,-117.62 239.07,-101.64 218.32,-92.01"/>
<polygon fill="midnightblue" stroke="midnightblue" points="299.08,-133.36 309.62,-134.4 302.03,-127.01 299.08,-133.36"/>
</g>
<!-- Node5 -->
<g id="node5" class="node">
<title>Node5</title>
<g id="a_node5"><a xlink:href="crc16_8h_source.html" target="_top" xlink:title=" ">
<polygon fill="white" stroke="black" points="284.5,-67.5 284.5,-97.5 395.5,-97.5 395.5,-67.5 284.5,-67.5"/>
<text text-anchor="start" x="292.5" y="-85.5" font-family="Helvetica,sans-Serif" font-size="10.00">iop/sio/mx4sio_bd/src</text>
<text text-anchor="middle" x="340" y="-74.5" font-family="Helvetica,sans-Serif" font-size="10.00">/crc16.h</text>
</a>
</g>
</g>
<!-- Node1&#45;&gt;Node5 -->
<g id="edge4" class="edge">
<title>Node1&#45;&gt;Node5</title>
<path fill="none" stroke="midnightblue" d="M340,-124.11C340,-115.15 340,-105.32 340,-97.58"/>
<polygon fill="midnightblue" stroke="midnightblue" points="336.5,-124.4 340,-134.4 343.5,-124.4 336.5,-124.4"/>
</g>
<!-- Node8 -->
<g id="node8" class="node">
<title>Node8</title>
<g id="a_node8"><a xlink:href="tools_2ps2adpcm_2src_2adpcm_8c_source.html" target="_top" xlink:title=" ">
<polygon fill="white" stroke="black" points="413,-67.5 413,-97.5 515,-97.5 515,-67.5 413,-67.5"/>
<text text-anchor="start" x="421" y="-85.5" font-family="Helvetica,sans-Serif" font-size="10.00">tools/ps2adpcm/src</text>
<text text-anchor="middle" x="464" y="-74.5" font-family="Helvetica,sans-Serif" font-size="10.00">/adpcm.c</text>
</a>
</g>
</g>
<!-- Node1&#45;&gt;Node8 -->
<g id="edge7" class="edge">
<title>Node1&#45;&gt;Node8</title>
<path fill="none" stroke="midnightblue" d="M375.84,-129.71C395.39,-119.46 419.2,-106.98 437.15,-97.58"/>
<polygon fill="midnightblue" stroke="midnightblue" points="374.14,-126.65 366.91,-134.4 377.39,-132.85 374.14,-126.65"/>
</g>
<!-- Node9 -->
<g id="node9" class="node">
<title>Node9</title>
<g id="a_node9"><a xlink:href="tools_2ps2adpcm_2src_2main_8c_source.html" target="_top" xlink:title=" ">
<polygon fill="white" stroke="black" points="533,-67.5 533,-97.5 635,-97.5 635,-67.5 533,-67.5"/>
<text text-anchor="start" x="541" y="-85.5" font-family="Helvetica,sans-Serif" font-size="10.00">tools/ps2adpcm/src</text>
<text text-anchor="middle" x="584" y="-74.5" font-family="Helvetica,sans-Serif" font-size="10.00">/main.c</text>
</a>
</g>
</g>
<!-- Node1&#45;&gt;Node9 -->
<g id="edge8" class="edge">
<title>Node1&#45;&gt;Node9</title>
<path fill="none" stroke="midnightblue" d="M396.07,-133.56C437.32,-122.57 492.94,-107.76 532.95,-97.1"/>
<polygon fill="midnightblue" stroke="midnightblue" points="394.94,-130.24 386.18,-136.2 396.75,-137.01 394.94,-130.24"/>
</g>
<!-- Node4 -->
<g id="node4" class="node">
<title>Node4</title>
<g id="a_node4"><a xlink:href="ps2__fio_8c.html" target="_top" xlink:title=" ">
<polygon fill="white" stroke="black" points="149.5,-0.5 149.5,-30.5 250.5,-30.5 250.5,-0.5 149.5,-0.5"/>
<text text-anchor="start" x="157.5" y="-18.5" font-family="Helvetica,sans-Serif" font-size="10.00">iop/fs/netfs/src/ps2</text>
<text text-anchor="middle" x="200" y="-7.5" font-family="Helvetica,sans-Serif" font-size="10.00">_fio.c</text>
</a>
</g>
</g>
<!-- Node3&#45;&gt;Node4 -->
<g id="edge3" class="edge">
<title>Node3&#45;&gt;Node4</title>
<path fill="none" stroke="midnightblue" d="M200,-62.41C200,-52.22 200,-39.9 200,-30.59"/>
<polygon fill="midnightblue" stroke="midnightblue" points="196.5,-62.73 200,-72.73 203.5,-62.73 196.5,-62.73"/>
</g>
<!-- Node6 -->
<g id="node6" class="node">
<title>Node6</title>
<g id="a_node6"><a xlink:href="crc16_8c_source.html" target="_top" xlink:title=" ">
<polygon fill="white" stroke="black" points="276.5,-0.5 276.5,-30.5 387.5,-30.5 387.5,-0.5 276.5,-0.5"/>
<text text-anchor="start" x="284.5" y="-18.5" font-family="Helvetica,sans-Serif" font-size="10.00">iop/sio/mx4sio_bd/src</text>
<text text-anchor="middle" x="332" y="-7.5" font-family="Helvetica,sans-Serif" font-size="10.00">/crc16.c</text>
</a>
</g>
</g>
<!-- Node5&#45;&gt;Node6 -->
<g id="edge5" class="edge">
<title>Node5&#45;&gt;Node6</title>
<path fill="none" stroke="midnightblue" d="M337.03,-57.4C335.92,-48.37 334.7,-38.41 333.73,-30.58"/>
<polygon fill="midnightblue" stroke="midnightblue" points="333.57,-57.9 338.26,-67.4 340.52,-57.04 333.57,-57.9"/>
</g>
<!-- Node7 -->
<g id="node7" class="node">
<title>Node7</title>
<g id="a_node7"><a xlink:href="mx4sio_8c_source.html" target="_top" xlink:title=" ">
<polygon fill="white" stroke="black" points="405.5,-0.5 405.5,-30.5 516.5,-30.5 516.5,-0.5 405.5,-0.5"/>
<text text-anchor="start" x="413.5" y="-18.5" font-family="Helvetica,sans-Serif" font-size="10.00">iop/sio/mx4sio_bd/src</text>
<text text-anchor="middle" x="461" y="-7.5" font-family="Helvetica,sans-Serif" font-size="10.00">/mx4sio.c</text>
</a>
</g>
</g>
<!-- Node5&#45;&gt;Node7 -->
<g id="edge6" class="edge">
<title>Node5&#45;&gt;Node7</title>
<path fill="none" stroke="midnightblue" d="M375.23,-62.57C394.26,-52.35 417.37,-39.94 434.8,-30.58"/>
<polygon fill="midnightblue" stroke="midnightblue" points="373.41,-59.58 366.26,-67.4 376.72,-65.75 373.41,-59.58"/>
</g>
</g>
</svg>
